<?xml version="1.0" encoding="UTF-8" standalone="no"?>
<!-- Created with Inkscape (http://www.inkscape.org/) -->

<svg
   xmlns:dc="http://purl.org/dc/elements/1.1/"
   xmlns:cc="http://creativecommons.org/ns#"
   xmlns:rdf="http://www.w3.org/1999/02/22-rdf-syntax-ns#"
   xmlns:svg="http://www.w3.org/2000/svg"
   xmlns="http://www.w3.org/2000/svg"
   xmlns:xlink="http://www.w3.org/1999/xlink"
   xmlns:sodipodi="http://sodipodi.sourceforge.net/DTD/sodipodi-0.dtd"
   xmlns:inkscape="http://www.inkscape.org/namespaces/inkscape"
   width="400"
   height="400"
   viewBox="0 0 400 400.00001"
   id="svg2"
   version="1.1"
   inkscape:version="0.92.1 r15371"
   sodipodi:docname="Icon.svg"
   enable-background="new"
   inkscape:export-filename="256.png"
   inkscape:export-xdpi="61.439999"
   inkscape:export-ydpi="61.439999">
  <defs
     id="defs4">
    <linearGradient
       inkscape:collect="always"
       id="linearGradient5220">
      <stop
         style="stop-color:#5a86ff;stop-opacity:1"
         offset="0"
         id="stop5214" />
      <stop
         id="stop5216"
         offset="0.66666669"
         style="stop-color:#5a5aff;stop-opacity:1" />
      <stop
         style="stop-color:#4f3ff8;stop-opacity:1"
         offset="1"
         id="stop5218" />
    </linearGradient>
    <radialGradient
       r="60"
       fy="74.210526"
       fx="200"
       cy="74.210526"
       cx="200"
       gradientTransform="matrix(-1,0,0,-2,380,-411.57895)"
       gradientUnits="userSpaceOnUse"
       id="radialGradient5512"
       xlink:href="#linearGradient5220"
       inkscape:collect="always" />
    <radialGradient
       r="25"
       fy="317.5"
       fx="200"
       cy="317.5"
       cx="200"
       gradientTransform="matrix(1,0,0,1.9,-20,-863.25)"
       gradientUnits="userSpaceOnUse"
       id="radialGradient5514"
       xlink:href="#linearGradient5220"
       inkscape:collect="always" />
    <radialGradient
       r="60"
       fy="74.210526"
       fx="200"
       cy="74.210526"
       cx="200"
       gradientTransform="matrix(-0.30901699,-0.95105652,1.902113,-0.61803399,252.81564,-213.36679)"
       gradientUnits="userSpaceOnUse"
       id="radialGradient5518"
       xlink:href="#linearGradient5220"
       inkscape:collect="always" />
    <radialGradient
       r="60"
       fy="74.210526"
       fx="200"
       cy="74.210526"
       cx="200"
       gradientTransform="matrix(0.80901699,-0.58778525,1.1755705,1.618034,25.002537,-273.07539)"
       gradientUnits="userSpaceOnUse"
       id="radialGradient5522"
       xlink:href="#linearGradient5220"
       inkscape:collect="always" />
    <radialGradient
       r="60"
       fy="74.210526"
       fx="200"
       cy="74.210526"
       cx="200"
       gradientTransform="matrix(-0.30901698,0.95105652,-1.902113,-0.61803396,230.79116,-593.7894)"
       gradientUnits="userSpaceOnUse"
       id="radialGradient5526"
       xlink:href="#linearGradient5220"
       inkscape:collect="always" />
    <radialGradient
       r="60"
       fy="74.210526"
       fx="200"
       cy="74.210526"
       cx="200"
       gradientTransform="matrix(0.80901699,0.58778525,-1.1755705,1.618034,11.390665,-508.18948)"
       gradientUnits="userSpaceOnUse"
       id="radialGradient5530"
       xlink:href="#linearGradient5220"
       inkscape:collect="always" />
    <radialGradient
       r="25"
       fy="317.5"
       fx="200"
       cy="317.5"
       cx="200"
       gradientTransform="matrix(0.30901696,-0.95105653,1.8070074,0.58713223,-322.38033,-352.9408)"
       gradientUnits="userSpaceOnUse"
       id="radialGradient5534"
       xlink:href="#linearGradient5220"
       inkscape:collect="always" />
    <radialGradient
       r="25"
       fy="317.5"
       fx="200"
       cy="317.5"
       cx="200"
       gradientTransform="matrix(-0.80901699,-0.58778525,1.116792,-1.5371323,69.51188,92.334173)"
       gradientUnits="userSpaceOnUse"
       id="radialGradient5538"
       xlink:href="#linearGradient5220"
       inkscape:collect="always" />
    <radialGradient
       r="25"
       fy="317.5"
       fx="200"
       cy="317.5"
       cx="200"
       gradientTransform="matrix(0.30901703,0.95105651,-1.8070074,0.58713235,558.77352,-733.36344)"
       gradientUnits="userSpaceOnUse"
       id="radialGradient5542"
       xlink:href="#linearGradient5220"
       inkscape:collect="always" />
    <radialGradient
       r="25"
       fy="317.5"
       fx="200"
       cy="317.5"
       cx="200"
       gradientTransform="matrix(-0.80901699,0.58778525,-1.116792,-1.5371323,614.09492,-142.77993)"
       gradientUnits="userSpaceOnUse"
       id="radialGradient5546"
       xlink:href="#linearGradient5220"
       inkscape:collect="always" />
  </defs>
  <sodipodi:namedview
     id="base"
     pagecolor="#ffffff"
     bordercolor="#666666"
     borderopacity="1.0"
     inkscape:pageopacity="0.0"
     inkscape:pageshadow="2"
     inkscape:zoom="0.35"
     inkscape:cx="658.49702"
     inkscape:cy="68.156405"
     inkscape:document-units="px"
     inkscape:current-layer="layer1"
     showgrid="true"
     units="px"
     inkscape:window-width="1695"
     inkscape:window-height="1058"
     inkscape:window-x="-8"
     inkscape:window-y="-8"
     inkscape:window-maximized="1"
     inkscape:snap-center="true"
     inkscape:snap-bbox="true"
     inkscape:bbox-paths="true"
     inkscape:bbox-nodes="true"
     inkscape:snap-bbox-edge-midpoints="true"
     inkscape:snap-intersection-paths="true">
    <inkscape:grid
       type="xygrid"
       id="grid4482" />
  </sodipodi:namedview>
  <metadata
     id="metadata7">
    <rdf:RDF>
      <cc:Work
         rdf:about="">
        <dc:format>image/svg+xml</dc:format>
        <dc:type
           rdf:resource="http://purl.org/dc/dcmitype/StillImage" />
        <dc:title />
      </cc:Work>
    </rdf:RDF>
  </metadata>
  <g
     inkscape:label="Default"
     inkscape:groupmode="layer"
     id="layer1"
     sodipodi:insensitive="true"
     style="display:inline">
    <g
       id="g4812">
      <path
         inkscape:connector-curvature="0"
         id="path5548"
         d="M 200.127,13.830805 A 15.0015,15.0015 0 0 0 186.8867,21.543695 C 180.6798,32.719715 163.6877,41.346865 147.6875,57.510485 A 15.0015,15.0015 0 0 0 147.502,57.699945 C 145.098,60.216135 138.7446,64.807055 133.0156,72.055415 C 130.1511,75.679585 127.2238,80.366345 126.1367,86.578845 C 125.9077,87.887985 125.8543,89.263505 125.8477,90.645255 C 123.271,90.360105 119.9871,89.933165 115.1543,91.455805 C 110.2052,93.015055 104.1057,98.759835 102.4473,104.51244 A 15.0015,15.0015 0 0 0 102.3945,104.69994 C 102.0267,106.04046 101.6588,107.3809 101.291,108.72142 C 98.994,107.86191 96.4844,107.16206 93.4746,107.02025 A 15.0015,15.0015 0 0 0 88.6309,107.5847 C 56.9611,116.67336 37.113,138.64179 16.3848,146.11595 A 15.0015,15.0015 0 0 0 8.4512,167.67259 C 12.044,173.95631 22.7669,199.21606 28.4043,214.11595 A 15.0015,15.0015 0 0 0 29.5547,216.49877 C 30.7949,218.57581 33.2874,226.40214 37.9688,234.57103 C 40.3094,238.65548 43.4825,243.22575 48.9277,246.78392 C 50.7894,248.00041 52.9825,248.88378 55.2734,249.60033 C 54.4154,251.56778 53.4981,253.85658 53.0156,257.20189 C 52.4527,261.10519 52.9763,267.21 56.5,272.07103 A 15.0015,15.0015 0 0 0 60.4004,275.79955 C 61.8605,276.76015 63.3211,277.7198 64.7813,278.68041 C 63.2541,280.5993 61.8129,282.77014 60.7481,285.58861 A 15.0015,15.0015 0 0 0 59.7891,290.36986 C 58.6462,323.29767 73.4047,348.96208 74.1074,370.98509 A 15.0015,15.0015 0 0 0 92.1563,385.19212 C 99.2427,383.71703 126.5811,381.32592 142.4941,380.56908 A 15.0015,15.0015 0 0 0 145.1152,380.21166 C 147.474,379.67403 155.6885,379.72147 164.9043,377.79369 C 169.5122,376.82979 174.8375,375.22438 179.9043,371.14525 C 181.6367,369.75055 183.1554,367.93677 184.5449,365.97923 C 186.1511,367.40319 188.0451,368.98474 191.0781,370.47728 C 194.6166,372.21859 200.5852,373.60617 206.2969,371.75658 A 15.0015,15.0015 0 0 0 211.0449,369.19994 C 212.4103,368.10768 213.7752,367.01485 215.1406,365.92259 C 216.4937,367.96809 218.1113,370.01141 220.4629,371.89525 A 15.0015,15.0015 0 0 0 224.7129,374.28392 C 255.6762,385.54603 284.6483,379.43998 305.8106,385.57689 A 15.0015,15.0015 0 0 0 324.8984,372.8015 C 325.6853,365.60592 331.8593,338.86683 336.0566,323.49877 A 15.0015,15.0015 0 0 0 336.5254,320.89525 C 336.743,318.4856 339.3275,310.68923 340.3418,301.32884 C 340.849,296.64865 340.968,291.08576 338.6543,285.00658 C 337.8634,282.9284 336.6077,280.92488 335.1758,278.99877 C 337.0264,277.9113 339.114,276.59779 341.4707,274.17455 C 344.2204,271.34723 347.3852,266.0986 347.3906,260.09447 A 15.0015,15.0015 0 0 0 346.4258,254.78783 C 345.809,253.15243 345.1929,251.51697 344.5762,249.88158 C 346.9389,249.22688 349.3809,248.3203 351.8984,246.66673 A 15.0015,15.0015 0 0 0 355.4844,243.36205 C 375.7634,217.39503 378.9107,187.95504 391.2871,169.72533 A 15.0015,15.0015 0 0 0 385.0352,147.62181 C 378.4348,144.6498 354.9128,130.51542 341.5938,121.77416 A 15.0015,15.0015 0 0 0 339.2617,120.52416 C 337.0373,119.57259 330.4209,114.70568 321.832,110.84837 C 317.5376,108.91972 312.2838,107.08711 305.7871,107.40892 C 303.5661,107.51894 301.2725,108.09338 298.9981,108.86009 C 298.5357,106.76426 297.9319,104.37347 296.3555,101.38353 C 294.516,97.894615 290.5018,93.263035 284.793,91.403065 A 15.0015,15.0015 0 0 0 279.4492,90.680415 L 274.2129,90.924555 C 274.3205,88.474755 274.2108,85.871385 273.416,82.965565 A 15.0015,15.0015 0 0 0 271.3828,78.533925 C 253.6145,52.203415 227.9732,39.980315 214.0371,23.543695 A 15.0015,15.0015 0 0 0 200.127,13.830805 Z"
         style="color:#000000;font-style:normal;font-variant:normal;font-weight:normal;font-stretch:normal;font-size:medium;line-height:normal;font-family:sans-serif;font-variant-ligatures:normal;font-variant-position:normal;font-variant-caps:normal;font-variant-numeric:normal;font-variant-alternates:normal;font-feature-settings:normal;text-indent:0;text-align:start;text-decoration:none;text-decoration-line:none;text-decoration-style:solid;text-decoration-color:#000000;letter-spacing:normal;word-spacing:normal;text-transform:none;writing-mode:lr-tb;direction:ltr;text-orientation:mixed;dominant-baseline:auto;baseline-shift:baseline;text-anchor:start;white-space:normal;shape-padding:0;clip-rule:nonzero;display:inline;overflow:visible;visibility:visible;opacity:1;isolation:auto;mix-blend-mode:normal;color-interpolation:sRGB;color-interpolation-filters:linearRGB;solid-color:#000000;solid-opacity:1;vector-effect:none;fill:#ffffff;fill-opacity:1;fill-rule:evenodd;stroke:none;stroke-width:30;stroke-linecap:round;stroke-linejoin:round;stroke-miterlimit:4;stroke-dasharray:none;stroke-dashoffset:0;stroke-opacity:1;color-rendering:auto;image-rendering:auto;shape-rendering:auto;text-rendering:auto;enable-background:accumulate" />
      <g
         transform="translate(20,618.14338)"
         id="g4616">
        <path
           inkscape:transform-center-y="-90.000002"
           sodipodi:nodetypes="cccccc"
           inkscape:connector-curvature="0"
           id="path5492"
           d="M 180,-590 C 180,-580 130,-550 120,-530 L 160,-400 H 200 L 240,-530 C 230,-550 180,-580 180,-590 Z"
           style="fill:url(#radialGradient5512);fill-opacity:1;fill-rule:evenodd;stroke:none;stroke-width:1px;stroke-linecap:butt;stroke-linejoin:miter;stroke-opacity:1" />
        <path
           inkscape:transform-center-y="-90.000002"
           sodipodi:nodetypes="cccccc"
           inkscape:connector-curvature="0"
           id="use5494"
           d="M 360.70074,-458.71323 C 351.19017,-455.62306 307.20763,-493.90538 285.09633,-497.2356 L 173.81966,-419.02113 L 186.18034,-380.97887 L 322.17837,-383.10882 C 338.10933,-398.79973 351.19017,-455.62306 360.70074,-458.71323 Z"
           style="fill:url(#radialGradient5518);fill-opacity:1;fill-rule:evenodd;stroke:none;stroke-width:1px;stroke-linecap:butt;stroke-linejoin:miter;stroke-opacity:1" />
        <path
           inkscape:transform-center-y="-90.000002"
           sodipodi:nodetypes="cccccc"
           inkscape:connector-curvature="0"
           id="use5496"
           d="M 291.6792,-246.28678 C 285.80135,-254.37695 308.61864,-308.03672 304.9531,-330.09491 L 196.18034,-411.75571 L 163.81966,-388.2443 L 207.87106,-259.56068 C 227.71694,-249.25819 285.80135,-254.37695 291.6792,-246.28678 Z"
           style="fill:url(#radialGradient5522);fill-opacity:1;fill-rule:evenodd;stroke:none;stroke-width:1px;stroke-linecap:butt;stroke-linejoin:miter;stroke-opacity:1" />
        <path
           inkscape:transform-center-y="-90.000002"
           sodipodi:nodetypes="cccccc"
           inkscape:connector-curvature="0"
           id="use5498"
           d="M -0.70074016,-458.71323 C 8.8098251,-455.62306 21.890672,-398.79972 37.821632,-383.10882 L 173.81966,-380.97887 L 186.18034,-419.02113 L 74.90367,-497.2356 C 52.79237,-493.90537 8.8098251,-455.62306 -0.70074016,-458.71323 Z"
           style="fill:url(#radialGradient5526);fill-opacity:1;fill-rule:evenodd;stroke:none;stroke-width:1px;stroke-linecap:butt;stroke-linejoin:miter;stroke-opacity:1" />
        <path
           inkscape:transform-center-y="-90.000002"
           sodipodi:nodetypes="cccccc"
           inkscape:connector-curvature="0"
           id="use5500"
           d="M 68.320802,-246.28677 C 74.198654,-254.37694 132.28306,-249.25819 152.12894,-259.56068 L 196.18034,-388.24429 L 163.81966,-411.75571 L 55.046897,-330.09491 C 51.381362,-308.03671 74.198654,-254.37694 68.320802,-246.28677 Z"
           style="fill:url(#radialGradient5530);fill-opacity:1;fill-rule:evenodd;stroke:none;stroke-width:1px;stroke-linecap:butt;stroke-linejoin:miter;stroke-opacity:1" />
        <path
           inkscape:transform-center-y="95.000002"
           sodipodi:nodetypes="ccccc"
           inkscape:connector-curvature="0"
           id="path5502"
           d="M 180,-355 L 155,-280 L 180,-260 L 205,-280 Z"
           style="fill:url(#radialGradient5514);fill-opacity:1;stroke:none;stroke-width:15.11811066;stroke-linecap:round;stroke-linejoin:round;stroke-miterlimit:4;stroke-dasharray:none;stroke-opacity:1" />
        <path
           inkscape:transform-center-y="95.000002"
           sodipodi:nodetypes="ccccc"
           inkscape:connector-curvature="0"
           id="use5504"
           d="M 222.79754,-386.09424 L 286.40136,-339.14155 L 313.14791,-356.73762 L 301.85221,-386.69438 Z"
           style="fill:url(#radialGradient5534);fill-opacity:1;stroke:none;stroke-width:15.11811066;stroke-linecap:round;stroke-linejoin:round;stroke-miterlimit:4;stroke-dasharray:none;stroke-opacity:1" />
        <path
           inkscape:transform-center-y="95.000002"
           sodipodi:nodetypes="ccccc"
           inkscape:connector-curvature="0"
           id="use5506"
           d="M 206.45034,-436.40576 L 270.75965,-482.38741 L 262.28994,-513.26238 L 230.30881,-511.77667 Z"
           style="fill:url(#radialGradient5538);fill-opacity:1;stroke:none;stroke-width:15.11811066;stroke-linecap:round;stroke-linejoin:round;stroke-miterlimit:4;stroke-dasharray:none;stroke-opacity:1" />
        <path
           inkscape:transform-center-y="95.000002"
           sodipodi:nodetypes="ccccc"
           inkscape:connector-curvature="0"
           id="use5508"
           d="M 137.20246,-386.09423 L 58.147792,-386.69437 L 46.852088,-356.73762 L 73.598644,-339.14154 Z"
           style="fill:url(#radialGradient5542);fill-opacity:1;stroke:none;stroke-width:15.11811066;stroke-linecap:round;stroke-linejoin:round;stroke-miterlimit:4;stroke-dasharray:none;stroke-opacity:1" />
        <path
           inkscape:transform-center-y="95.000002"
           sodipodi:nodetypes="ccccc"
           inkscape:connector-curvature="0"
           id="use5510"
           d="M 153.54966,-436.40577 L 129.69119,-511.77668 L 97.710065,-513.26239 L 89.240345,-482.38741 Z"
           style="fill:url(#radialGradient5546);fill-opacity:1;stroke:none;stroke-width:15.11811066;stroke-linecap:round;stroke-linejoin:round;stroke-miterlimit:4;stroke-dasharray:none;stroke-opacity:1" />
      </g>
      <path
         style="fill:#ffffff;fill-opacity:1;stroke:none;stroke-width:10;stroke-linecap:round;stroke-linejoin:round;stroke-miterlimit:4;stroke-dasharray:none;stroke-opacity:1"
         d="M 164.4492,159.60627 A 10,10 0 0 0 158.8555,161.51252 A 10,10 0 0 0 156.6426,175.47932 A 10,10 0 0 0 166.1719,179.49104 C 171.724,193.17246 181.247,209.46023 196.6172,218.54377 C 184.2901,229.33859 166.7851,233.27454 152.6523,234.34846 A 10,10 0 0 0 152.4473,233.59455 A 10,10 0 0 0 139.8477,227.17463 A 10,10 0 0 0 133.4258,239.77424 A 10,10 0 0 0 146.0273,246.19416 A 10,10 0 0 0 152.7871,238.36994 C 167.5145,237.31748 185.9473,233.29582 199.3359,221.48518 C 205.7936,236.5453 204.1273,254.40974 200.7813,268.18244 A 10,10 0 0 0 200,268.14338 A 10,10 0 0 0 190,278.14338 A 10,10 0 0 0 200,288.14338 A 10,10 0 0 0 210,278.14338 A 10,10 0 0 0 204.6504,269.29768 C 208.2,254.96609 210.0675,236.19235 202.9727,219.8094 C 219.2912,218.32128 235.7675,225.42368 247.832,232.86213 A 10,10 0 0 0 247.5527,233.59455 A 10,10 0 0 0 253.9727,246.19416 A 10,10 0 0 0 266.5742,239.77424 A 10,10 0 0 0 260.1543,227.17463 A 10,10 0 0 0 250.0801,229.53596 C 238.914,222.58146 223.9967,215.79712 208.3008,215.59065 C 206.3766,215.56533 204.4412,215.64892 202.5,215.83283 C 206.1274,199.85303 217.9766,186.3778 228.7793,177.20197 A 10,10 0 0 0 229.3887,177.69221 A 10,10 0 0 0 243.3574,175.47932 A 10,10 0 0 0 241.1445,161.51252 A 10,10 0 0 0 227.1777,163.72541 A 10,10 0 0 0 226.3066,174.02619 C 215.0106,183.53426 202.4658,197.6243 198.5762,215.04963 C 184.4987,206.66158 175.3434,191.22978 169.9551,178.11994 A 10,10 0 0 0 170.6113,177.69221 A 10,10 0 0 0 172.8242,163.72541 A 10,10 0 0 0 164.4492,159.60627 Z"
         id="path4791"
         inkscape:connector-curvature="0" />
    </g>
  </g>
  <g
     inkscape:groupmode="layer"
     id="layer3"
     inkscape:label="Mono"
     style="display:none"
     sodipodi:insensitive="true">
    <rect
       style="fill:#5a5aff;fill-opacity:1;stroke:none;stroke-width:15.11811066;stroke-linecap:round;stroke-linejoin:round;stroke-miterlimit:4;stroke-dasharray:none;stroke-opacity:1"
       id="rect4561"
       width="400"
       height="400"
       x="0"
       y="0" />
    <path
       id="path4563"
       d="M 200.12696,13.830804 A 15.0015,15.0015 0 0 0 186.88673,21.543694 C 180.6798,32.719714 163.68767,41.346864 147.68751,57.510484 A 15.0015,15.0015 0 0 0 147.50196,57.699944 C 145.09801,60.216134 138.74463,64.807054 133.01563,72.055414 C 130.15114,75.679587 127.22377,80.366347 126.13673,86.578847 C 125.90766,87.887987 125.85429,89.263507 125.84767,90.645257 C 123.271,90.360107 119.98713,89.933167 115.1543,91.455807 C 110.20525,93.015057 104.1057,98.759837 102.44727,104.51245 A 15.0015,15.0015 0 0 0 102.39454,104.69995 C 102.02674,106.04047 101.65881,107.38091 101.29102,108.72143 C 98.993995,107.86192 96.484445,107.16207 93.474605,107.02026 A 15.0015,15.0015 0 0 0 88.630855,107.58471 C 56.961125,116.67337 37.112975,138.6418 16.384762,146.11596 A 15.0015,15.0015 0 0 0 8.4511723,167.6726 C 12.044022,173.95632 22.766902,199.21607 28.404295,214.11596 A 15.0015,15.0015 0 0 0 29.554685,216.49878 C 30.794895,218.57582 33.287385,226.40215 37.968755,234.57104 C 40.309435,238.65549 43.482505,243.22576 48.927735,246.78393 C 50.789375,248.00042 52.982525,248.88379 55.273435,249.60034 C 54.415445,251.56779 53.498095,253.85659 53.015625,257.2019 C 52.452685,261.1052 52.976255,267.21001 56.500005,272.07104 A 15.0015,15.0015 0 0 0 60.400395,275.79956 C 61.860535,276.76016 63.321105,277.71981 64.781255,278.68042 C 63.254135,280.59931 61.812915,282.77015 60.748045,285.58862 A 15.0015,15.0015 0 0 0 59.789065,290.36987 C 58.646155,323.29768 73.404745,348.96209 74.107425,370.9851 A 15.0015,15.0015 0 0 0 92.156255,385.19213 C 99.242705,383.71704 126.5811,381.32593 142.49415,380.56909 A 15.0015,15.0015 0 0 0 145.11524,380.21167 C 147.47402,379.67404 155.68851,379.72148 164.90431,377.7937 C 169.5122,376.8298 174.83754,375.22439 179.90431,371.14526 C 181.63669,369.75056 183.15542,367.93678 184.54493,365.97924 C 186.15112,367.4032 188.04514,368.98475 191.07813,370.47729 C 194.61665,372.2186 200.58518,373.60618 206.29689,371.75659 A 15.0015,15.0015 0 0 0 211.04493,369.19995 C 212.41034,368.10769 213.77523,367.01486 215.14063,365.9226 C 216.49372,367.9681 218.11128,370.01142 220.4629,371.89526 A 15.0015,15.0015 0 0 0 224.7129,374.28393 C 255.67617,385.54604 284.64828,379.43999 305.81056,385.5769 A 15.0015,15.0015 0 0 0 324.89845,372.80151 C 325.68531,365.60593 331.85927,338.86684 336.05665,323.49878 A 15.0015,15.0015 0 0 0 336.5254,320.89526 C 336.74298,318.48561 339.3275,310.68924 340.34181,301.32885 C 340.84896,296.64866 340.96796,291.08577 338.65431,285.00659 C 337.86338,282.92841 336.60771,280.92489 335.17579,278.99878 C 337.02636,277.91131 339.11397,276.5978 341.47071,274.17456 C 344.22043,271.34724 347.38518,266.09861 347.39063,260.09448 A 15.0015,15.0015 0 0 0 346.42579,254.78784 C 345.80904,253.15244 345.19293,251.51698 344.57618,249.88159 C 346.93894,249.22689 349.38095,248.32031 351.89845,246.66674 A 15.0015,15.0015 0 0 0 355.48439,243.36206 C 375.76345,217.39504 378.91071,187.95505 391.28712,169.72534 A 15.0015,15.0015 0 0 0 385.03517,147.62182 C 378.43485,144.64981 354.9128,130.51543 341.59376,121.77417 A 15.0015,15.0015 0 0 0 339.26173,120.52417 C 337.03729,119.5726 330.42089,114.70569 321.83204,110.84838 C 317.53762,108.91973 312.28379,107.08712 305.78712,107.40893 C 303.5661,107.51895 301.27253,108.09339 298.99806,108.8601 C 298.53567,106.76427 297.93188,104.37348 296.35548,101.38354 C 294.516,97.894617 290.50177,93.263037 284.79298,91.403067 A 15.0015,15.0015 0 0 0 279.44923,90.680417 L 274.2129,90.924557 C 274.32054,88.474757 274.21083,85.871387 273.41603,82.965567 A 15.0015,15.0015 0 0 0 271.38282,78.533927 C 253.61452,52.203414 227.97322,39.980314 214.03712,23.543694 A 15.0015,15.0015 0 0 0 200.12696,13.830804 Z"
       style="color:#000000;font-style:normal;font-variant:normal;font-weight:normal;font-stretch:normal;font-size:medium;line-height:normal;font-family:sans-serif;font-variant-ligatures:normal;font-variant-position:normal;font-variant-caps:normal;font-variant-numeric:normal;font-variant-alternates:normal;font-feature-settings:normal;text-indent:0;text-align:start;text-decoration:none;text-decoration-line:none;text-decoration-style:solid;text-decoration-color:#000000;letter-spacing:normal;word-spacing:normal;text-transform:none;writing-mode:lr-tb;direction:ltr;text-orientation:mixed;dominant-baseline:auto;baseline-shift:baseline;text-anchor:start;white-space:normal;shape-padding:0;clip-rule:nonzero;display:inline;overflow:visible;visibility:visible;opacity:1;isolation:auto;mix-blend-mode:normal;color-interpolation:sRGB;color-interpolation-filters:linearRGB;solid-color:#000000;solid-opacity:1;vector-effect:none;fill:#ffffff;fill-opacity:1;fill-rule:evenodd;stroke:none;stroke-width:30;stroke-linecap:round;stroke-linejoin:round;stroke-miterlimit:4;stroke-dasharray:none;stroke-dashoffset:0;stroke-opacity:1;color-rendering:auto;image-rendering:auto;shape-rendering:auto;text-rendering:auto;enable-background:accumulate"
       inkscape:connector-curvature="0" />
    <path
       style="fill:#5a5aff;fill-opacity:1;fill-rule:evenodd;stroke:none;stroke-width:1px;stroke-linecap:butt;stroke-linejoin:miter;stroke-opacity:1"
       d="M 200.00001,28.143554 C 200.00001,38.143554 150.00001,68.143554 140.00001,88.143557 L 145.54689,106.17481 L 117.71095,104.88184 L 110.3379,131.75489 L 94.904305,120.90722 C 72.793005,124.23746 28.809395,162.52083 19.298832,159.43066 C 28.809395,162.52083 41.891315,219.34328 57.822275,235.03418 L 76.685555,235.3291 L 66.851565,261.40528 L 90.132815,276.72168 L 75.046885,288.04785 C 71.381355,310.10605 94.198165,363.76627 88.320315,371.85644 C 94.198165,363.76627 152.28304,368.8855 172.12892,358.58301 L 178.23829,340.73535 L 200.00001,358.14356 L 221.76173,340.73535 L 227.8711,358.58301 C 247.71698,368.8855 305.80185,363.76627 311.6797,371.85644 C 305.80185,363.76627 328.61867,310.10605 324.95313,288.04785 L 309.8672,276.72168 L 333.14845,261.40528 L 323.31446,235.3291 L 342.17774,235.03418 C 358.1087,219.34326 371.19061,162.52083 380.70118,159.43066 C 371.19061,162.52083 327.20701,124.23744 305.09571,120.90722 L 289.66212,131.75489 L 282.28907,104.88184 L 254.45313,106.17481 L 260.00001,88.143557 C 250.00001,68.143554 200.00001,38.143554 200.00001,28.143554 Z"
       id="path4565"
       inkscape:connector-curvature="0" />
    <path
       inkscape:connector-curvature="0"
       id="path4795"
       d="M 164.44923,159.60645 A 10,10 0 0 0 158.85548,161.5127 A 10,10 0 0 0 156.64259,175.4795 A 10,10 0 0 0 166.17188,179.49122 C 171.724,193.17264 181.24701,209.46041 196.6172,218.54395 C 184.29011,229.33877 166.78514,233.27472 152.65235,234.34864 A 10,10 0 0 0 152.44727,233.59473 A 10,10 0 0 0 139.84766,227.17481 A 10,10 0 0 0 133.42579,239.77442 A 10,10 0 0 0 146.02735,246.19434 A 10,10 0 0 0 152.78712,238.37012 C 167.51452,237.31766 185.94726,233.296 199.33595,221.48536 C 205.79359,236.54548 204.1273,254.40992 200.78126,268.18262 A 10,10 0 0 0 200.00001,268.14356 A 10,10 0 0 0 190.00001,278.14356 A 10,10 0 0 0 200.00001,288.14356 A 10,10 0 0 0 210.00001,278.14356 A 10,10 0 0 0 204.6504,269.29786 C 208.20002,254.96627 210.06748,236.19253 202.97266,219.80958 C 219.2912,218.32146 235.76753,225.42386 247.83204,232.86231 A 10,10 0 0 0 247.55274,233.59473 A 10,10 0 0 0 253.97266,246.19434 A 10,10 0 0 0 266.57423,239.77442 A 10,10 0 0 0 260.15431,227.17481 A 10,10 0 0 0 250.08009,229.53614 C 238.91405,222.58164 223.99666,215.7973 208.30079,215.59083 C 206.37665,215.56551 204.44123,215.6491 202.50001,215.83301 C 206.12738,199.85321 217.97664,186.37798 228.77931,177.20215 A 10,10 0 0 0 229.38868,177.69239 A 10,10 0 0 0 243.35743,175.4795 A 10,10 0 0 0 241.14454,161.5127 A 10,10 0 0 0 227.17774,163.72559 A 10,10 0 0 0 226.30665,174.02637 C 215.01057,183.53444 202.46578,197.62448 198.57618,215.04981 C 184.49873,206.66176 175.3434,191.22996 169.95509,178.12012 A 10,10 0 0 0 170.61134,177.69239 A 10,10 0 0 0 172.82423,163.72559 A 10,10 0 0 0 164.44923,159.60645 Z"
       style="fill:#ffffff;fill-opacity:1;stroke:none;stroke-width:10;stroke-linecap:round;stroke-linejoin:round;stroke-miterlimit:4;stroke-dasharray:none;stroke-opacity:1" />
  </g>
  <g
     inkscape:groupmode="layer"
     id="layer4"
     inkscape:label="MonoColor0"
     sodipodi:insensitive="true"
     style="display:none">
    <path
       style="fill:#5a86ff;fill-opacity:1;stroke:none;stroke-width:15.11811066;stroke-linecap:round;stroke-linejoin:round;stroke-miterlimit:4;stroke-dasharray:none;stroke-opacity:1"
       d="M 0,0 V 400 H 400 V 0 Z M 200.12695,13.83008 A 15.0015,15.0015 0 0 1 214.03711,23.54297 C 227.97321,39.97957 253.61451,52.2027 271.38281,78.5332 A 15.0015,15.0015 0 0 1 273.41602,82.96484 C 274.21082,85.87064 274.32053,88.47403 274.21289,90.92383 L 279.44922,90.67969 A 15.0015,15.0015 0 0 1 284.79297,91.40234 C 290.50176,93.26224 294.51599,97.89391 296.35547,101.38281 C 297.93187,104.37281 298.53566,106.76358 298.99805,108.85938 C 301.27252,108.09268 303.56609,107.5182 305.78711,107.4082 C 312.28378,107.0864 317.53763,108.91896 321.83203,110.84766 C 330.42083,114.70496 337.03722,119.57184 339.26172,120.52344 A 15.0015,15.0015 0 0 1 341.59375,121.77344 C 354.91275,130.51464 378.43486,144.64909 385.03516,147.62109 A 15.0015,15.0015 0 0 1 391.28711,169.72461 C 378.91071,187.95431 375.76348,217.39433 355.48438,243.36133 A 15.0015,15.0015 0 0 1 351.89844,246.66602 C 349.38094,248.31962 346.93897,249.22616 344.57617,249.88086 C 345.19297,251.51626 345.80908,253.15171 346.42578,254.78711 A 15.0015,15.0015 0 0 1 347.39062,260.09375 C 347.38513,266.09785 344.2204,271.34653 341.4707,274.17383 C 339.1139,276.59713 337.02638,277.91055 335.17578,278.99805 C 336.60778,280.92415 337.8634,282.92766 338.6543,285.00586 C 340.968,291.08506 340.849,296.64792 340.3418,301.32812 C 339.3275,310.68853 336.74299,318.48493 336.52539,320.89453 A 15.0015,15.0015 0 0 1 336.05664,323.49805 C 331.85924,338.86607 325.68524,365.6052 324.89844,372.80078 A 15.0015,15.0015 0 0 1 305.81055,385.57617 C 284.64827,379.43926 255.67616,385.54531 224.71289,374.2832 A 15.0015,15.0015 0 0 1 220.46289,371.89453 C 218.11127,370.01069 216.49371,367.96737 215.14062,365.92187 C 213.77522,367.01413 212.41033,368.10696 211.04492,369.19922 A 15.0015,15.0015 0 0 1 206.29688,371.75586 C 200.58516,373.60545 194.61664,372.21787 191.07812,370.47656 C 188.04513,368.98402 186.15111,367.40248 184.54492,365.97852 C 183.15541,367.93606 181.63668,369.74983 179.9043,371.14453 C 174.83753,375.22366 169.51219,376.82907 164.9043,377.79297 C 155.6885,379.72075 147.47401,379.67331 145.11523,380.21094 A 15.0015,15.0015 0 0 1 142.49414,380.56836 C 126.58109,381.3252 99.2427,383.71632 92.15625,385.19141 A 15.0015,15.0015 0 0 1 74.10742,370.98437 C 73.40474,348.96136 58.64615,323.29694 59.78906,290.36914 A 15.0015,15.0015 0 0 1 60.74805,285.58789 C 61.81292,282.76939 63.25413,280.59859 64.78125,278.67969 C 63.3211,277.71909 61.86053,276.75943 60.40039,275.79883 A 15.0015,15.0015 0 0 1 56.5,272.07031 C 52.97625,267.20931 52.45268,261.10447 53.01562,257.20117 C 53.4981,253.85587 54.41545,251.56711 55.27344,249.59961 C 52.98253,248.88311 50.78937,247.9997 48.92773,246.7832 C 43.4825,243.225 40.30943,238.65481 37.96875,234.57031 C 33.28738,226.40141 30.7949,218.57505 29.55469,216.49805 A 15.0015,15.0015 0 0 1 28.4043,214.11523 C 22.76691,199.21543 12.04402,173.95558 8.45117,167.67188 A 15.0015,15.0015 0 0 1 16.38477,146.11523 C 37.11298,138.64113 56.96113,116.67268 88.63086,107.58398 A 15.0015,15.0015 0 0 1 93.47461,107.01953 C 96.48445,107.16143 98.994,107.8612 101.29102,108.7207 C 101.65881,107.3802 102.02673,106.03982 102.39453,104.69922 A 15.0015,15.0015 0 0 1 102.44727,104.51172 C 104.1057,98.75912 110.20525,93.01428 115.1543,91.45508 C 119.98713,89.93248 123.27099,90.35943 125.84766,90.64453 C 125.85428,89.26283 125.90765,87.88733 126.13672,86.57812 C 127.22376,80.36562 130.15113,75.67889 133.01562,72.05469 C 138.74463,64.80629 145.098,60.21542 147.50195,57.69922 A 15.0015,15.0015 0 0 1 147.6875,57.50977 C 163.68766,41.34607 180.67979,32.71897 186.88672,21.54297 A 15.0015,15.0015 0 0 1 200.12695,13.83008 Z M 200,28.14453 C 200,38.14453 150,68.14453 140,88.14453 L 145.54688,106.17578 L 117.71094,104.88281 L 110.33789,131.75586 L 94.9043,120.9082 C 72.793,124.2385 28.80938,162.52174 19.29883,159.43164 C 28.80939,162.52174 41.89131,219.34426 57.82227,235.03516 L 76.68555,235.33008 L 66.85156,261.40625 L 90.13281,276.72266 L 75.04688,288.04883 C 71.38135,310.10703 94.19816,363.76725 88.32031,371.85742 C 94.19816,363.76725 152.28303,368.88647 172.12891,358.58398 L 178.23828,340.73633 L 200,358.14453 L 221.76172,340.73633 L 227.87109,358.58398 C 247.71697,368.88647 305.80184,363.76725 311.67969,371.85742 C 305.80184,363.76725 328.61862,310.10703 324.95312,288.04883 L 309.86719,276.72266 L 333.14844,261.40625 L 323.31445,235.33008 L 342.17773,235.03516 C 358.10863,219.34416 371.19067,162.52174 380.70117,159.43164 C 371.19067,162.52174 327.20704,124.2384 305.0957,120.9082 L 289.66211,131.75586 L 282.28906,104.88281 L 254.45312,106.17578 L 260,88.14453 C 250,68.14453 200,38.14453 200,28.14453 Z M 164.44922,159.60742 A 10,10 0 0 1 172.82422,163.72656 A 10,10 0 0 1 170.61133,177.69336 A 10,10 0 0 1 169.95508,178.12109 C 175.34339,191.23089 184.49872,206.66268 198.57617,215.05078 C 202.46577,197.62548 215.01056,183.53544 226.30664,174.02734 A 10,10 0 0 1 227.17773,163.72656 A 10,10 0 0 1 241.14453,161.51367 A 10,10 0 0 1 243.35742,175.48047 A 10,10 0 0 1 229.38867,177.69336 A 10,10 0 0 1 228.7793,177.20312 C 217.97663,186.37903 206.12737,199.85418 202.5,215.83398 C 204.44122,215.65008 206.37664,215.5665 208.30078,215.5918 C 223.99665,215.7983 238.91404,222.58261 250.08008,229.53711 A 10,10 0 0 1 260.1543,227.17578 A 10,10 0 0 1 266.57422,239.77539 A 10,10 0 0 1 253.97266,246.19531 A 10,10 0 0 1 247.55273,233.5957 A 10,10 0 0 1 247.83203,232.86328 C 235.76752,225.42478 219.2912,218.32235 202.97266,219.81055 C 210.06748,236.19345 208.20001,254.96723 204.65039,269.29883 A 10,10 0 0 1 210,278.14453 A 10,10 0 0 1 200,288.14453 A 10,10 0 0 1 190,278.14453 A 10,10 0 0 1 200,268.14453 A 10,10 0 0 1 200.78125,268.18359 C 204.12729,254.41089 205.79358,236.54653 199.33594,221.48633 C 185.94725,233.29703 167.51451,237.31859 152.78711,238.37109 A 10,10 0 0 1 146.02734,246.19531 A 10,10 0 0 1 133.42578,239.77539 A 10,10 0 0 1 139.84766,227.17578 A 10,10 0 0 1 152.44727,233.5957 A 10,10 0 0 1 152.65234,234.34961 C 166.78513,233.27571 184.2901,229.33972 196.61719,218.54492 C 181.247,209.46142 171.72399,193.17359 166.17188,179.49219 A 10,10 0 0 1 156.64258,175.48047 A 10,10 0 0 1 158.85547,161.51367 A 10,10 0 0 1 164.44922,159.60742 Z"
       id="path4834"
       inkscape:connector-curvature="0" />
  </g>
  <g
     inkscape:groupmode="layer"
     id="layer5"
     inkscape:label="MonoColor1"
     sodipodi:insensitive="true"
     style="display:none">
    <path
       style="fill:#5a5aff;fill-opacity:1;stroke:none;stroke-width:15.11811066;stroke-linecap:round;stroke-linejoin:round;stroke-miterlimit:4;stroke-dasharray:none;stroke-opacity:1"
       d="M 0,0 V 400 H 400 V 0 Z M 200.127,13.83008 A 15.0015,15.0015 0 0 1 214.0371,23.54297 C 227.9732,39.97957 253.6145,52.2027 271.3828,78.5332 A 15.0015,15.0015 0 0 1 273.416,82.96484 C 274.2108,85.87064 274.3205,88.47403 274.2129,90.92383 L 279.4492,90.67969 A 15.0015,15.0015 0 0 1 284.793,91.40234 C 290.5018,93.26224 294.516,97.89391 296.3555,101.38281 C 297.9319,104.37281 298.5357,106.76358 298.998,108.85938 C 301.2725,108.09268 303.5661,107.5183 305.7871,107.4082 C 312.2838,107.0864 317.5376,108.91896 321.832,110.84766 C 330.4209,114.70496 337.0373,119.57184 339.2617,120.52344 A 15.0015,15.0015 0 0 1 341.5938,121.77344 C 354.9127,130.51464 378.4348,144.64909 385.0352,147.62109 A 15.0015,15.0015 0 0 1 391.2871,169.72461 C 378.9107,187.95441 375.7634,217.39423 355.4844,243.36133 A 15.0015,15.0015 0 0 1 351.8984,246.66602 C 349.3809,248.31962 346.9389,249.22616 344.5762,249.88086 C 345.1929,251.51626 345.809,253.15171 346.4258,254.78711 A 15.0015,15.0015 0 0 1 347.3906,260.09375 C 347.3852,266.09785 344.2204,271.34643 341.4707,274.17383 C 339.114,276.59703 337.0264,277.91055 335.1758,278.99805 C 336.6077,280.92415 337.8634,282.92766 338.6543,285.00586 C 340.9679,291.08506 340.8489,296.64792 340.3418,301.32812 C 339.3275,310.68842 336.743,318.48483 336.5254,320.89453 A 15.0015,15.0015 0 0 1 336.0566,323.49805 C 331.8593,338.86609 325.6853,365.6052 324.8984,372.80078 A 15.0015,15.0015 0 0 1 305.8105,385.57617 C 284.6483,379.43926 255.6762,385.54531 224.7129,374.2832 A 15.0015,15.0015 0 0 1 220.4629,371.89453 C 218.1113,370.01069 216.4937,367.96737 215.1406,365.92187 C 213.7752,367.01413 212.4103,368.10696 211.0449,369.19922 A 15.0015,15.0015 0 0 1 206.2969,371.75586 C 200.5852,373.60545 194.6166,372.21787 191.0781,370.47656 C 188.0451,368.98402 186.1511,367.40248 184.5449,365.97852 C 183.1554,367.93606 181.6367,369.74983 179.9043,371.14453 C 174.8375,375.22366 169.5122,376.82907 164.9043,377.79297 C 155.6885,379.72075 147.474,379.67331 145.1152,380.21094 A 15.0015,15.0015 0 0 1 142.4941,380.56836 C 126.5811,381.3252 99.2426,383.71632 92.1562,385.19141 A 15.0015,15.0015 0 0 1 74.1074,370.98437 C 73.4047,348.96136 58.6462,323.29694 59.7891,290.36914 A 15.0015,15.0015 0 0 1 60.748,285.58789 C 61.8129,282.76949 63.2541,280.59859 64.7812,278.67969 C 63.321,277.71909 61.8605,276.75943 60.4004,275.79883 A 15.0015,15.0015 0 0 1 56.5,272.07031 C 52.9763,267.20931 52.4527,261.10447 53.0156,257.20117 C 53.4981,253.85587 54.4154,251.56711 55.2734,249.59961 C 52.9825,248.88311 50.7894,247.9997 48.9277,246.7832 C 43.4825,243.2251 40.3093,238.65481 37.9688,234.57031 C 33.2873,226.40151 30.7949,218.57505 29.5547,216.49805 A 15.0015,15.0015 0 0 1 28.4043,214.11523 C 22.7669,199.21533 12.044,173.95558 8.4512,167.67188 A 15.0015,15.0015 0 0 1 16.3848,146.11523 C 37.113,138.64103 56.9611,116.67268 88.6309,107.58398 A 15.0015,15.0015 0 0 1 93.4746,107.01953 C 96.4845,107.16133 98.994,107.8612 101.291,108.7207 C 101.6588,107.3802 102.0267,106.03972 102.3945,104.69922 A 15.0015,15.0015 0 0 1 102.4473,104.51172 C 104.1057,98.75902 110.2052,93.01438 115.1543,91.45508 C 119.9871,89.93248 123.271,90.35933 125.8477,90.64453 C 125.8543,89.26273 125.9077,87.88723 126.1367,86.57812 C 127.2238,80.36562 130.1511,75.67889 133.0156,72.05469 C 138.7446,64.80639 145.098,60.21532 147.502,57.69922 A 15.0015,15.0015 0 0 1 147.6875,57.50977 C 163.6877,41.34617 180.6798,32.71897 186.8867,21.54297 A 15.0015,15.0015 0 0 1 200.127,13.83008 Z M 200,28.14453 C 200,38.14453 150,68.14453 140,88.14453 L 145.5469,106.17578 L 117.7109,104.88281 L 110.3379,131.75586 L 94.9043,120.9082 C 72.793,124.2385 28.8094,162.52174 19.2988,159.43164 C 28.8094,162.52174 41.8913,219.34426 57.8223,235.03516 L 76.6855,235.33008 L 66.8516,261.40625 L 90.1328,276.72266 L 75.0469,288.04883 C 71.3813,310.10703 94.1982,363.76725 88.3203,371.85742 C 94.1982,363.76725 152.283,368.88647 172.1289,358.58398 L 178.2383,340.73633 L 200,358.14453 L 221.7617,340.73633 L 227.8711,358.58398 C 247.717,368.88647 305.8018,363.76725 311.6797,371.85742 C 305.8018,363.76725 328.6187,310.10703 324.9531,288.04883 L 309.8672,276.72266 L 333.1484,261.40625 L 323.3145,235.33008 L 342.1777,235.03516 C 358.1087,219.34426 371.1906,162.52174 380.7012,159.43164 C 371.1906,162.52174 327.207,124.2385 305.0957,120.9082 L 289.6621,131.75586 L 282.2891,104.88281 L 254.4531,106.17578 L 260,88.14453 C 250,68.14453 200,38.14453 200,28.14453 Z M 164.4492,159.60742 A 10,10 0 0 1 172.8242,163.72656 A 10,10 0 0 1 170.6113,177.69336 A 10,10 0 0 1 169.9551,178.12109 C 175.3434,191.23089 184.4987,206.66268 198.5762,215.05078 C 202.4658,197.62548 215.0106,183.53544 226.3066,174.02734 A 10,10 0 0 1 227.1777,163.72656 A 10,10 0 0 1 241.1445,161.51367 A 10,10 0 0 1 243.3574,175.48047 A 10,10 0 0 1 229.3887,177.69336 A 10,10 0 0 1 228.7793,177.20312 C 217.9766,186.37903 206.1274,199.85418 202.5,215.83398 C 204.4412,215.65008 206.3766,215.5665 208.3008,215.5918 C 223.9967,215.7983 238.914,222.58261 250.0801,229.53711 A 10,10 0 0 1 260.1543,227.17578 A 10,10 0 0 1 266.5742,239.77539 A 10,10 0 0 1 253.9727,246.19531 A 10,10 0 0 1 247.5527,233.5957 A 10,10 0 0 1 247.832,232.86328 C 235.7675,225.42478 219.2912,218.32235 202.9727,219.81055 C 210.0675,236.19345 208.2,254.96723 204.6504,269.29883 A 10,10 0 0 1 210,278.14453 A 10,10 0 0 1 200,288.14453 A 10,10 0 0 1 190,278.14453 A 10,10 0 0 1 200,268.14453 A 10,10 0 0 1 200.7812,268.18359 C 204.1273,254.41089 205.7936,236.54653 199.3359,221.48633 C 185.9473,233.29703 167.5145,237.31859 152.7871,238.37109 A 10,10 0 0 1 146.0273,246.19531 A 10,10 0 0 1 133.4258,239.77539 A 10,10 0 0 1 139.8477,227.17578 A 10,10 0 0 1 152.4473,233.5957 A 10,10 0 0 1 152.6523,234.34961 C 166.7851,233.27571 184.2901,229.33972 196.6172,218.54492 C 181.247,209.46142 171.724,193.17359 166.1719,179.49219 A 10,10 0 0 1 156.6426,175.48047 A 10,10 0 0 1 158.8555,161.51367 A 10,10 0 0 1 164.4492,159.60742 Z"
       id="path4836"
       inkscape:connector-curvature="0" />
  </g>
  <g
     inkscape:groupmode="layer"
     id="layer6"
     inkscape:label="MonoColor2"
     style="display:none"
     sodipodi:insensitive="true">
    <path
       style="fill:#4f3ff8;fill-opacity:1;stroke:none;stroke-width:15.11811066;stroke-linecap:round;stroke-linejoin:round;stroke-miterlimit:4;stroke-dasharray:none;stroke-opacity:1"
       d="M 0,0 V 400 H 400 V 0 Z M 200.127,13.83008 A 15.0015,15.0015 0 0 1 214.0371,23.54297 C 227.9732,39.97957 253.6145,52.2027 271.3828,78.5332 A 15.0015,15.0015 0 0 1 273.416,82.96484 C 274.2108,85.87064 274.3205,88.47403 274.2129,90.92383 L 279.4492,90.67969 A 15.0015,15.0015 0 0 1 284.793,91.40234 C 290.5018,93.26224 294.516,97.89391 296.3555,101.38281 C 297.9319,104.37281 298.5357,106.76358 298.998,108.85938 C 301.2725,108.09268 303.5661,107.5183 305.7871,107.4082 C 312.2838,107.0864 317.5376,108.91896 321.832,110.84766 C 330.4209,114.70496 337.0373,119.57184 339.2617,120.52344 A 15.0015,15.0015 0 0 1 341.5938,121.77344 C 354.9127,130.51464 378.4348,144.64909 385.0352,147.62109 A 15.0015,15.0015 0 0 1 391.2871,169.72461 C 378.9107,187.95441 375.7634,217.39423 355.4844,243.36133 A 15.0015,15.0015 0 0 1 351.8984,246.66602 C 349.3809,248.31962 346.9389,249.22616 344.5762,249.88086 C 345.1929,251.51626 345.809,253.15171 346.4258,254.78711 A 15.0015,15.0015 0 0 1 347.3906,260.09375 C 347.3852,266.09785 344.2204,271.34643 341.4707,274.17383 C 339.114,276.59703 337.0264,277.91055 335.1758,278.99805 C 336.6077,280.92415 337.8634,282.92766 338.6543,285.00586 C 340.9679,291.08506 340.8489,296.64792 340.3418,301.32812 C 339.3275,310.68842 336.743,318.48483 336.5254,320.89453 A 15.0015,15.0015 0 0 1 336.0566,323.49805 C 331.8593,338.86609 325.6853,365.6052 324.8984,372.80078 A 15.0015,15.0015 0 0 1 305.8105,385.57617 C 284.6483,379.43926 255.6762,385.54531 224.7129,374.2832 A 15.0015,15.0015 0 0 1 220.4629,371.89453 C 218.1113,370.01069 216.4937,367.96737 215.1406,365.92187 C 213.7752,367.01413 212.4103,368.10696 211.0449,369.19922 A 15.0015,15.0015 0 0 1 206.2969,371.75586 C 200.5852,373.60545 194.6166,372.21787 191.0781,370.47656 C 188.0451,368.98402 186.1511,367.40248 184.5449,365.97852 C 183.1554,367.93606 181.6367,369.74983 179.9043,371.14453 C 174.8375,375.22366 169.5122,376.82907 164.9043,377.79297 C 155.6885,379.72075 147.474,379.67331 145.1152,380.21094 A 15.0015,15.0015 0 0 1 142.4941,380.56836 C 126.5811,381.3252 99.2427,383.71632 92.1562,385.19141 A 15.0015,15.0015 0 0 1 74.1074,370.98437 C 73.4047,348.96136 58.6462,323.29694 59.7891,290.36914 A 15.0015,15.0015 0 0 1 60.748,285.58789 C 61.8129,282.76949 63.2541,280.59859 64.7812,278.67969 C 63.321,277.71909 61.8605,276.75943 60.4004,275.79883 A 15.0015,15.0015 0 0 1 56.5,272.07031 C 52.9763,267.20931 52.4527,261.10447 53.0156,257.20117 C 53.4981,253.85587 54.4154,251.56711 55.2734,249.59961 C 52.9825,248.88311 50.7894,247.9997 48.9277,246.7832 C 43.4825,243.2251 40.3094,238.65481 37.9688,234.57031 C 33.2873,226.40151 30.7949,218.57505 29.5547,216.49805 A 15.0015,15.0015 0 0 1 28.4043,214.11523 C 22.7669,199.21533 12.044,173.95558 8.4512,167.67188 A 15.0015,15.0015 0 0 1 16.3848,146.11523 C 37.113,138.64103 56.9611,116.67268 88.6309,107.58398 A 15.0015,15.0015 0 0 1 93.4746,107.01953 C 96.4845,107.16133 98.994,107.8612 101.291,108.7207 C 101.6588,107.3802 102.0267,106.03972 102.3945,104.69922 A 15.0015,15.0015 0 0 1 102.4473,104.51172 C 104.1057,98.75902 110.2052,93.01438 115.1543,91.45508 C 119.9871,89.93248 123.271,90.35933 125.8477,90.64453 C 125.8543,89.26273 125.9077,87.88723 126.1367,86.57812 C 127.2238,80.36562 130.1511,75.67889 133.0156,72.05469 C 138.7446,64.80639 145.098,60.21532 147.502,57.69922 A 15.0015,15.0015 0 0 1 147.6875,57.50977 C 163.6877,41.34617 180.6798,32.71897 186.8867,21.54297 A 15.0015,15.0015 0 0 1 200.127,13.83008 Z M 200,28.14453 C 200,38.14453 150,68.14453 140,88.14453 L 145.5469,106.17578 L 117.7109,104.88281 L 110.3379,131.75586 L 94.9043,120.9082 C 72.793,124.2385 28.8094,162.52174 19.2988,159.43164 C 28.8094,162.52174 41.8913,219.34426 57.8223,235.03516 L 76.6855,235.33008 L 66.8516,261.40625 L 90.1328,276.72266 L 75.0469,288.04883 C 71.3813,310.10703 94.1982,363.76725 88.3203,371.85742 C 94.1982,363.76725 152.283,368.88647 172.1289,358.58398 L 178.2383,340.73633 L 200,358.14453 L 221.7617,340.73633 L 227.8711,358.58398 C 247.717,368.88647 305.8018,363.76725 311.6797,371.85742 C 305.8018,363.76725 328.6187,310.10703 324.9531,288.04883 L 309.8672,276.72266 L 333.1484,261.40625 L 323.3145,235.33008 L 342.1777,235.03516 C 358.1087,219.34426 371.1906,162.52174 380.7012,159.43164 C 371.1906,162.52174 327.207,124.2385 305.0957,120.9082 L 289.6621,131.75586 L 282.2891,104.88281 L 254.4531,106.17578 L 260,88.14453 C 250,68.14453 200,38.14453 200,28.14453 Z M 164.4492,159.60742 A 10,10 0 0 1 172.8242,163.72656 A 10,10 0 0 1 170.6113,177.69336 A 10,10 0 0 1 169.9551,178.12109 C 175.3434,191.23089 184.4987,206.66268 198.5762,215.05078 C 202.4658,197.62548 215.0106,183.53544 226.3066,174.02734 A 10,10 0 0 1 227.1777,163.72656 A 10,10 0 0 1 241.1445,161.51367 A 10,10 0 0 1 243.3574,175.48047 A 10,10 0 0 1 229.3887,177.69336 A 10,10 0 0 1 228.7793,177.20312 C 217.9766,186.37903 206.1274,199.85418 202.5,215.83398 C 204.4412,215.65008 206.3766,215.5665 208.3008,215.5918 C 223.9967,215.7983 238.914,222.58261 250.0801,229.53711 A 10,10 0 0 1 260.1543,227.17578 A 10,10 0 0 1 266.5742,239.77539 A 10,10 0 0 1 253.9727,246.19531 A 10,10 0 0 1 247.5527,233.5957 A 10,10 0 0 1 247.832,232.86328 C 235.7675,225.42478 219.2912,218.32235 202.9727,219.81055 C 210.0675,236.19345 208.2,254.96723 204.6504,269.29883 A 10,10 0 0 1 210,278.14453 A 10,10 0 0 1 200,288.14453 A 10,10 0 0 1 190,278.14453 A 10,10 0 0 1 200,268.14453 A 10,10 0 0 1 200.7812,268.18359 C 204.1273,254.41089 205.7936,236.54653 199.3359,221.48633 C 185.9473,233.29703 167.5145,237.31859 152.7871,238.37109 A 10,10 0 0 1 146.0273,246.19531 A 10,10 0 0 1 133.4258,239.77539 A 10,10 0 0 1 139.8477,227.17578 A 10,10 0 0 1 152.4473,233.5957 A 10,10 0 0 1 152.6523,234.34961 C 166.7851,233.27571 184.2901,229.33972 196.6172,218.54492 C 181.247,209.46142 171.724,193.17359 166.1719,179.49219 A 10,10 0 0 1 156.6426,175.48047 A 10,10 0 0 1 158.8555,161.51367 A 10,10 0 0 1 164.4492,159.60742 Z"
       id="path4838"
       inkscape:connector-curvature="0" />
  </g>
</svg>
